<?xml version="1.0" encoding="UTF-8"?>
<svg width="1024px" height="1024px" viewBox="0 0 1024 1024" version="1.1" xmlns="http://www.w3.org/2000/svg" xmlns:xlink="http://www.w3.org/1999/xlink">
    <title>linux</title>
    <g id="页面-7" stroke="none" stroke-width="1" fill="none" fill-rule="evenodd">
        <g id="linux">
            <rect id="矩形" fill-opacity="0" fill="#FFFFFF" x="0" y="0" width="1024" height="1024"></rect>
            <polygon id="路径" fill="#ECEFF1" fill-rule="nonzero" points="389.305621 290.064252 392.125442 354.930705 347.0017 439.538546 276.495606 577.730914 262.393859 693.362071 313.158563 856.936791 428.789721 921.803243 603.645045 921.803243 767.221087 797.711301 840.547001 603.113266 671.331318 397.234626 623.387756 281.603468"></polygon>
            <path d="M789.782297,450.819151 C744.658555,385.952699 707.995598,346.469921 688.252887,264.6819 C668.511498,182.893879 693.89385,205.456411 676.972282,134.950317 C668.511498,98.2860377 654.40975,72.9036853 640.309325,53.1622963 C623.387756,33.4209073 603.645045,22.1389804 592.36444,19.3191597 C566.982088,5.21741208 507.756599,-17.3437977 434.429362,22.1389804 C358.282305,61.6230804 366.743089,146.230922 380.844837,318.266426 C380.844837,329.548353 378.025016,343.648778 372.384053,354.930705 C361.103448,380.313057 341.360737,402.874267 324.439168,422.616978 C304.697779,450.819151 284.95639,479.021324 270.854643,510.04464 C237.011506,574.911093 205.98819,656.697792 214.448974,687.721108 C228.550722,684.901287 406.227189,955.64638 406.227189,961.286021 C417.507794,958.4662 465.452678,958.4662 507.756599,958.4662 C566.982088,955.64638 600.825225,952.825237 648.770109,964.107164 C648.770109,955.64638 645.948966,947.185595 645.948966,938.724811 C645.948966,921.803243 648.770109,907.701495 651.589929,887.960106 C654.40975,873.858359 657.230893,859.756611 660.050714,842.835043 C631.84854,868.217395 581.083836,896.420891 533.138951,904.881675 C490.835031,913.342459 420.328937,899.240711 386.4858,856.936791 C389.305621,856.936791 394.946584,856.936791 397.766405,854.11697 C406.227189,851.295827 414.687973,848.476006 417.507794,842.835043 C425.968578,828.734617 420.328937,814.63287 414.687973,806.172086 C409.04701,797.711301 366.743089,766.687986 347.0017,749.766417 C327.260311,732.844849 315.978384,724.384065 304.697779,713.10346 L282.135248,690.540928 C276.495606,684.901287 273.674463,679.260323 270.854643,676.440503 C265.213679,662.338755 262.393859,645.417187 265.213679,622.854655 C268.034822,591.832661 279.315427,566.450309 293.417174,538.246814 C299.056816,526.966209 313.158563,504.403677 313.158563,504.403677 C313.158563,504.403677 265.213679,622.854655 290.596032,659.518934 C290.596032,659.518934 293.417174,622.854655 304.697779,586.191698 C313.158563,560.809345 327.260311,524.146388 344.181879,504.403677 C361.103448,484.660966 403.407368,411.335051 406.227189,366.21131 C406.227189,346.469921 409.04701,326.72721 409.04701,312.626784 C397.766405,301.344857 595.184261,273.142684 606.466188,304.166 C609.286009,315.446605 648.770109,416.976015 671.331318,470.56054 C682.613245,495.942893 696.713671,518.505425 705.174455,546.707598 C713.635239,577.730914 719.276203,620.034834 719.276203,662.338755 C719.276203,670.799539 719.276203,684.901287 716.456382,699.001712 C722.096023,699.001712 832.086217,580.550734 702.354634,481.842467 C702.354634,481.842467 781.321512,518.505425 784.142655,591.832661 C786.962476,651.05815 761.580123,699.001712 755.93916,707.462497 C758.760303,707.462497 815.164649,732.844849 817.985792,732.844849 C829.266397,732.844849 851.828928,724.384065 851.828928,724.384065 C854.648749,715.923281 863.109533,693.362071 863.109533,684.901287 C882.850922,620.034834 834.90736,515.685604 789.782297,450.819151 L789.782297,450.819151 Z" id="路径" fill="#999999" fill-rule="nonzero"></path>
            <path d="M394.946584,208.276232 C394.946584,239.428222 411.361149,264.6819 431.609542,264.6819 C451.857934,264.6819 468.272499,239.428222 468.272499,208.276232 C468.272499,177.124241 451.857934,151.870563 431.609542,151.870563 C411.361149,151.870563 394.946584,177.124241 394.946584,208.276232 L394.946584,208.276232 Z M510.57642,205.456411 C510.57642,241.281163 532.042075,270.322863 558.521304,270.322863 C585.000532,270.322863 606.466188,241.281163 606.466188,205.456411 C606.466188,182.281859 597.327946,160.867689 582.493746,149.280413 C567.659547,137.693137 549.38306,137.693137 534.548861,149.280413 C519.714662,160.867689 510.57642,182.281859 510.57642,205.456411 L510.57642,205.456411 Z" id="形状" fill="#ECEFF1" fill-rule="nonzero"></path>
            <path d="M436.769298,248.183371 C443.766553,247.298766 449.423329,240.08179 451.608774,229.251008 C453.794218,218.420226 452.176311,205.621092 447.3645,195.674915 C442.55269,185.728738 435.278007,180.14658 428.280752,181.031185 C421.247031,181.847729 415.544935,189.054102 413.337207,199.917002 C411.129478,210.779902 412.754289,223.635396 417.595366,233.60753 C422.436442,243.579665 429.752248,249.14095 436.767976,248.182049 L436.769298,248.183371 Z M527.497988,216.737016 C527.497988,236.985883 540.124827,253.400832 555.700822,253.400832 C571.276817,253.400832 583.903656,236.985883 583.903656,216.737016 C583.903656,196.488149 571.276817,180.073199 555.700822,180.073199 C540.124827,180.073199 527.497988,196.488149 527.497988,216.737016 Z" id="形状" fill="#999999" fill-rule="nonzero"></path>
            <path d="M930.795806,837.195402 C919.515202,831.554438 899.772491,823.093654 882.850922,797.711301 C874.390138,783.609554 877.211281,744.126776 863.109533,727.205208 C854.648749,715.923281 843.368144,721.564244 840.547001,721.564244 C815.164649,727.205208 755.93916,766.687986 716.456382,721.564244 C710.815419,715.923281 702.354634,707.462497 688.252887,707.462497 C674.151139,707.462497 668.511498,713.10346 662.870534,724.384065 C657.229571,735.66467 657.230893,744.126776 657.230893,772.328949 C657.230893,794.891481 657.230893,820.273833 654.40975,840.015222 C648.770109,887.960106 640.309325,916.16228 640.309325,944.364453 C640.309325,975.387769 648.770109,995.129158 660.050714,1003.58994 C668.511498,1012.05073 682.613245,1017.69169 713.635239,1017.69169 C744.658555,1017.69169 764.399944,1006.41108 784.142655,986.668374 C798.243081,972.567948 809.525008,966.926984 849.007786,938.724811 C880.031102,918.9821 927.975986,893.599748 936.43677,885.138964 C942.076411,879.499322 950.537195,876.67818 950.537195,859.756611 C950.537195,845.656186 939.256591,840.015222 930.795806,837.195402 Z M363.923268,845.656186 C335.721095,800.531122 332.899952,792.070338 313.158563,763.868165 C296.236995,735.665992 259.574038,682.080144 237.011506,682.080144 C220.089938,682.080144 211.629154,690.540928 200.348549,701.822855 C189.066622,713.10346 177.786017,738.485812 158.044628,752.58756 C141.12306,766.687986 93.1781755,763.868165 81.8975707,780.789733 C70.6156438,797.711301 93.1781755,823.093654 93.1781755,865.397575 C93.1781755,882.319143 79.076428,893.599748 76.2566072,904.881675 C73.4367865,918.9821 70.6156438,927.442884 76.2566072,938.724811 C87.5372121,955.64638 101.63896,961.286021 197.527406,981.028732 C248.292111,992.309337 296.236995,1020.51151 327.260311,1023.33265 C358.282305,1026.15247 411.868153,1023.33265 411.868153,947.185595 C414.687973,902.060532 389.305621,890.779927 363.923268,845.656186 L363.923268,845.656186 Z M417.507794,335.187994 C400.586226,323.907389 386.4858,312.626784 386.4858,295.705216 C386.4858,278.783648 397.766405,273.142684 414.687973,259.040937 C417.507794,256.221116 448.53111,228.018943 479.554426,228.018943 C510.577742,228.018943 547.240699,247.760332 561.341125,253.401295 C586.723477,259.040937 612.105829,264.6819 609.286009,284.423289 C606.466188,312.626784 603.645045,318.266426 575.442872,332.368173 C555.701483,338.009137 519.037204,369.031131 493.654851,369.031131 C482.374246,369.031131 465.452678,369.031131 454.172073,366.21131 C445.711289,363.391489 431.609542,349.289742 417.507794,335.187994 L417.507794,335.187994 Z" id="形状" fill="#BBBBBB" fill-rule="nonzero"></path>
            <path d="M411.868153,312.626784 C417.507794,318.266426 425.968578,323.907389 434.429362,326.72721 C440.070326,329.548353 448.53111,332.368173 448.53111,332.368173 L473.913462,332.368173 C488.01521,332.368173 507.756599,326.72721 527.497988,315.446605 C547.240699,306.985821 550.06052,301.344857 564.162267,295.705216 C578.262693,287.244432 592.36444,278.783648 586.723477,275.962505 C581.083836,273.142684 575.442872,275.962505 555.701483,287.244432 C538.779915,298.525037 524.678167,304.166 507.756599,312.626784 C499.295815,315.446605 488.01521,321.087568 479.554426,321.087568 L454.172073,321.087568 C445.711289,321.087568 440.070326,318.266426 431.609542,315.446605 C425.968578,312.626784 423.148757,309.805641 420.328937,309.805641 C414.687973,306.985821 403.407368,295.705216 397.766405,292.884073 C397.766405,292.884073 392.125442,292.884073 394.946584,295.705216 L411.868153,312.626784 L411.868153,312.626784 Z M496.475994,250.580152 C499.295815,256.221116 504.936778,256.221116 507.756599,259.040937 C510.57642,261.862079 513.397562,261.862079 513.397562,261.862079 C516.217383,259.040937 513.397562,253.401295 510.57642,253.401295 C510.57642,247.760332 496.475994,247.760332 496.475994,250.580152 Z M451.350931,256.221116 C451.350931,259.040937 456.991894,261.862079 456.991894,259.040937 C459.811715,256.221116 462.632857,253.401295 465.452678,253.401295 C471.093642,250.580152 468.272499,247.760332 459.811715,247.760332 C454.172073,250.580152 454.172073,253.401295 451.350931,256.221116 L451.350931,256.221116 Z" id="形状" fill="#999999" fill-rule="nonzero"></path>
            <path d="M724.917166,755.407381 L724.917166,763.868165 C730.556808,775.14877 744.658555,777.969912 755.93916,777.969912 C772.860728,777.969912 789.782297,766.687986 798.243081,755.407381 C798.243081,752.58756 801.064223,749.766417 803.884044,746.946597 C809.525008,738.485812 812.344828,732.844849 815.164649,730.025028 C815.164649,730.025028 812.344828,727.205208 812.344828,724.384065 C809.525008,718.744423 801.064223,713.10346 789.782297,710.283639 C781.321512,707.462497 767.221087,704.642676 761.580123,704.642676 C736.197771,701.822855 722.096023,710.283639 713.635239,718.744423 C713.635239,718.744423 716.456382,718.744423 716.456382,721.564244 C722.096023,727.205208 724.917166,732.844849 724.917166,741.305633 C727.736987,746.946597 724.917166,749.766417 724.917166,755.407381 Z" id="路径" fill="#999999" fill-rule="nonzero"></path>
        </g>
    </g>
</svg>