<svg xmlns:xlink="http://www.w3.org/1999/xlink" xmlns="http://www.w3.org/2000/svg" version="1.1" viewBox="0 0 1080 1080" height="1080px" width="1080px">
    <title>Empty state_top up</title>
    <defs>
        <linearGradient id="linearGradient-1" y2="49.4954%" x2="-25.0486869%" y1="49.4954%" x1="120.941313%">
            <stop offset="0%" stop-opacity="0" stop-color="#C8CACD"></stop>
            <stop offset="100%" stop-color="#B2B4B8"></stop>
        </linearGradient>
        <linearGradient id="linearGradient-2" y2="100.079736%" x2="47.7180444%" y1="9.74361973%" x1="51.6935863%">
            <stop offset="0%" stop-color="#F4F5F5"></stop>
            <stop offset="100%" stop-color="#B3B5B9"></stop>
        </linearGradient>
        <linearGradient id="linearGradient-3" y2="99.8533457%" x2="51.713845%" y1="7.4888973%" x1="49.2690373%">
            <stop offset="0%" stop-color="#F3F4F4"></stop>
            <stop offset="100%" stop-color="#B3B5B9"></stop>
        </linearGradient>
        <linearGradient id="linearGradient-4" y2="-44.1493651%" x2="49.8657202%" y1="100.010635%" x1="49.8657202%">
            <stop offset="0%" stop-color="#F8F8F9"></stop>
            <stop offset="100%" stop-color="#E2E3E4"></stop>
        </linearGradient>
        <linearGradient id="linearGradient-5" y2="2.87711651%" x2="49.9950427%" y1="99.6392758%" x1="49.9950427%">
            <stop offset="0%" stop-opacity="0" stop-color="#F4F5F5"></stop>
            <stop offset="100%" stop-color="#EEEFF0"></stop>
        </linearGradient>
        <linearGradient id="linearGradient-6" y2="2.85491453%" x2="50.0012082%" y1="99.7049145%" x1="50.0012082%">
            <stop offset="0%" stop-opacity="0" stop-color="#F4F5F5"></stop>
            <stop offset="100%" stop-color="#EEEFF0"></stop>
        </linearGradient>
        <linearGradient id="linearGradient-7" y2="0.0988387978%" x2="49.9970261%" y1="99.9963798%" x1="49.9970261%">
            <stop offset="0.2903294%" stop-opacity="0" stop-color="#F4F5F5"></stop>
            <stop offset="97.98%" stop-color="#F0F1F2"></stop>
        </linearGradient>
        <linearGradient id="linearGradient-8" y2="99.9858081%" x2="47.0187475%" y1="9.36633848%" x1="52.3452688%">
            <stop offset="0%" stop-color="#F4F5F5"></stop>
            <stop offset="100%" stop-color="#B3B5B9"></stop>
        </linearGradient>
        <linearGradient id="linearGradient-9" y2="99.6659271%" x2="52.4577426%" y1="7.50436304%" x1="48.885635%">
            <stop offset="0%" stop-color="#F3F4F4"></stop>
            <stop offset="100%" stop-color="#B3B5B9"></stop>
        </linearGradient>
        <linearGradient id="linearGradient-10" y2="100.308672%" x2="46.8965965%" y1="9.7865285%" x1="52.2450867%">
            <stop offset="0%" stop-color="#F4F5F5"></stop>
            <stop offset="100%" stop-color="#B3B5B9"></stop>
        </linearGradient>
        <linearGradient id="linearGradient-11" y2="99.6736808%" x2="52.4643686%" y1="7.45308553%" x1="48.767651%">
            <stop offset="0%" stop-color="#F3F4F4"></stop>
            <stop offset="100%" stop-color="#B3B5B9"></stop>
        </linearGradient>
        <linearGradient id="linearGradient-12" y2="100.098062%" x2="49.9564329%" y1="0.0307406429%" x1="49.9564329%">
            <stop offset="0%" stop-color="#F2F3F3"></stop>
            <stop offset="100%" stop-color="#EDEEEF"></stop>
        </linearGradient>
        <linearGradient id="linearGradient-13" y2="100.09983%" x2="49.9564329%" y1="0.0325085%" x1="49.9564329%">
            <stop offset="0%" stop-color="#D7D8DA"></stop>
            <stop offset="100%" stop-color="#EDEEEF"></stop>
        </linearGradient>
        <linearGradient id="linearGradient-14" y2="100.102217%" x2="49.9368428%" y1="0.0348951429%" x1="49.9368428%">
            <stop offset="0%" stop-color="#F2F3F3"></stop>
            <stop offset="100%" stop-color="#EDEEEF"></stop>
        </linearGradient>
        <linearGradient id="linearGradient-15" y2="100.107752%" x2="49.9178289%" y1="0.0404308571%" x1="49.9178289%">
            <stop offset="0%" stop-color="#D7D8DA"></stop>
            <stop offset="100%" stop-color="#EDEEEF"></stop>
        </linearGradient>
        <linearGradient id="linearGradient-16" y2="99.9574281%" x2="50.0173787%" y1="-0.0221008696%" x1="50.0173787%">
            <stop offset="0%" stop-color="#F2F3F3"></stop>
            <stop offset="100%" stop-color="#D2D4D6"></stop>
        </linearGradient>
        <linearGradient id="linearGradient-17" y2="99.9961877%" x2="50.0173787%" y1="-0.00381226053%" x1="50.0173787%">
            <stop offset="0%" stop-color="#D7D8DA"></stop>
            <stop offset="100%" stop-color="#EDEEEF"></stop>
        </linearGradient>
        <linearGradient id="linearGradient-18" y2="98.4991895%" x2="50.0319666%" y1="0.508189542%" x1="50.0319666%">
            <stop offset="0%" stop-color="#FFFFFF"></stop>
            <stop offset="100%" stop-color="#D3D4D7"></stop>
        </linearGradient>
        <linearGradient id="linearGradient-19" y2="98.5027843%" x2="50.0319666%" y1="0.511784314%" x1="50.0319666%">
            <stop offset="0%" stop-color="#FFFFFF"></stop>
            <stop offset="100%" stop-color="#F8F8F9"></stop>
        </linearGradient>
        <linearGradient id="linearGradient-20" y2="100.003086%" x2="50.0231585%" y1="0.00308641975%" x1="50.0231585%">
            <stop offset="0%" stop-color="#B0B2B7"></stop>
            <stop offset="100%" stop-color="#ECEDEE"></stop>
        </linearGradient>
        <linearGradient id="linearGradient-21" y2="100.001852%" x2="50.0231585%" y1="0.00185185186%" x1="50.0231585%">
            <stop offset="0%" stop-color="#C3C4C8"></stop>
            <stop offset="100%" stop-color="#ECEDEE"></stop>
        </linearGradient>
        <linearGradient id="linearGradient-22" y2="100.08296%" x2="49.9223044%" y1="0.0824369772%" x1="49.9223044%">
            <stop offset="0%" stop-color="#EFF0F1"></stop>
            <stop offset="100%" stop-color="#BBBDC1"></stop>
        </linearGradient>
        <linearGradient id="linearGradient-23" y2="17.9829679%" x2="188.177934%" y1="81.4555551%" x1="94.0846966%">
            <stop offset="0%" stop-color="#EEEFF0"></stop>
            <stop offset="100%" stop-color="#C4C5C9"></stop>
        </linearGradient>
        <linearGradient id="linearGradient-24" y2="85.2625667%" x2="85.1697669%" y1="14.9355161%" x1="14.8427163%">
            <stop offset="0%" stop-opacity="0.6357" stop-color="#FFFFFF"></stop>
            <stop offset="100%" stop-opacity="0.09743772" stop-color="#FFFFFF"></stop>
        </linearGradient>
    </defs>
    <g opacity="0.9" fill-rule="evenodd" fill="none" stroke-width="1" stroke="none" id="基础组件">
        <g fill-rule="nonzero" id="Empty-state_top-up">
            <g id="暂无充值记录">
                <g id="编组-14">
                    <rect height="1080" width="1080" y="0" x="0" fill="#FFFFFF" fill-opacity="0" id="矩形"></rect>
                    <ellipse ry="15" rx="148.5" cy="881.7" cx="540" opacity="0.331" fill="url(#linearGradient-1)" id="椭圆形"></ellipse>
                    <g transform="translate(167.280915, 585.933207)" opacity="0.7794" id="编组备份-2">
                        <ellipse ry="5.4" rx="17.4" cy="82.1667915" cx="47.5190856" opacity="0.5988" fill="#9DA0A6" id="椭圆形_1_"></ellipse>
                        <path opacity="0.5765" fill="url(#linearGradient-2)" id="椭圆形_2_" d="M32.2190856,82.1667915 C37.0190856,84.2667915 60.4190856,47.6667915 63.7190856,38.0667915 C67.0190856,28.4667916 63.4190856,17.6667916 55.6190856,14.3667916 C47.8190856,11.0667916 38.8190856,16.1667916 35.5190856,26.0667916 C32.2190856,35.9667915 27.1190857,80.0667915 32.2190856,82.1667915 Z"></path>
                        <path fill="url(#linearGradient-3)" id="椭圆形_3_" d="M33.1190856,82.1667915 C39.1190856,80.3667915 38.2190856,28.4667916 35.2190856,16.7667916 C32.2190856,5.06679156 22.3190857,-2.13320844 12.7190857,0.56679156 C3.11908572,3.26679156 -1.98091428,14.9667916 0.719085721,26.6667916 C3.41908572,38.3667915 27.1190857,83.9667915 33.1190856,82.1667915 Z"></path>
                    </g>
                    <path opacity="0.7" fill="url(#linearGradient-4)" id="形状结合" d="M214.8,286.2 C213.6,286.2 212.4,286.2 211.2,285.9 C209.7,286.2 208.2,286.2 206.7,286.2 C183.6,286.2 165,267.6 165,244.2 C165,220.8 183.6,202.5 206.7,202.5 C209.4,202.5 212.1,202.8 214.5,203.1 C224.1,185.1 243,172.8 264.9,172.8 C296.1,172.8 321.6,198.3 321.6,229.5 L321.6,229.5 L355.2,229.5 C370.8,229.5 383.7,242.1 383.7,257.7 C383.7,273.3 371.1,286.2 355.2,286.2 L214.8,286.2 Z"></path>
                    <g transform="translate(108.000000, 658.800000)" id="编组-2">
                        <path fill="url(#linearGradient-5)" id="路径" d="M0,140.4 C46.8,71.7 91.8,37.2 134.4,37.2 C177,37.2 225.9,71.7 280.8,140.4 L0,140.4 Z"></path>
                        <path fill="url(#linearGradient-6)" id="路径-2" d="M166.2,140.4 C215.7,46.8 268.8,0 325.2,0 C381.6,0 484.2,46.8 633,140.4 L166.2,140.4 Z"></path>
                        <path fill="url(#linearGradient-7)" id="路径-3" d="M864,140.4 C812.4,67.2 763.5,30.6 717.9,30.6 C672.3,30.6 598.5,67.2 496.8,140.4 L864,140.4 Z"></path>
                    </g>
                    <g transform="translate(772.258626, 537.253152)" id="编组-62">
                        <ellipse ry="4.2" rx="13.5" cy="57.9468483" cx="37.7413755" opacity="0.6699" fill="#9DA0A6" id="椭圆形_4_"></ellipse>
                        <path opacity="0.5765" fill="url(#linearGradient-8)" id="椭圆形_5_" d="M26.0413755,57.9468483 C29.9413755,59.4468483 47.6413755,33.3468483 50.3413755,26.4468484 C53.0413755,19.5468484 50.0413755,12.0468484 44.3413755,9.64684836 C38.6413755,7.24684836 31.4413755,11.1468484 28.7413755,18.0468484 C26.0413755,24.6468484 22.4413755,56.4468483 26.0413755,57.9468483 Z"></path>
                        <path fill="url(#linearGradient-9)" id="椭圆形_6_" d="M25.4413755,57.9468483 C30.2413755,56.7468483 29.3413755,20.1468484 27.2413755,12.0468484 C25.1413755,3.94684836 17.0413755,-1.45315164 9.84137547,0.34684836 C2.64137547,2.14684836 -1.55862453,10.5468484 0.541375469,18.6468484 C2.64137547,26.7468484 20.9413755,59.1468483 25.4413755,57.9468483 Z"></path>
                    </g>
                    <g transform="translate(796.611630, 788.332341)" opacity="0.8969" id="编组">
                        <ellipse ry="5.4" rx="17.7" cy="97.2676599" cx="56.2883712" opacity="0.5969" fill="#9DA0A6" id="椭圆形_7_"></ellipse>
                        <path opacity="0.5765" fill="url(#linearGradient-10)" id="椭圆形_8_" d="M43.6883712,98.1676599 C49.9883712,100.56766 80.2883712,56.4676599 84.7883712,44.7676599 C89.2883712,33.0676599 84.4883712,20.1676598 74.2883712,16.2676598 C64.0883712,12.3676598 52.3883712,18.6676598 47.8883712,30.3676599 C43.3883712,42.0676599 37.3883712,95.7676599 43.6883712,98.1676599 Z"></path>
                        <path fill="url(#linearGradient-11)" id="椭圆形_9_" d="M43.6883712,98.4676599 C51.7883712,96.3676599 50.5883712,34.2676599 46.6883712,20.4676598 C42.7883712,6.66765978 29.2883711,-2.63234023 16.6883711,0.667659768 C4.08837108,3.96765978 -2.81162892,18.0676598 1.08837108,32.1676599 C4.98837108,46.2676599 35.5883712,100.56766 43.6883712,98.4676599 Z"></path>
                    </g>
                </g>
                <g transform="translate(198.549386, 361.800000)" id="编组-17">
                    <g transform="translate(126.826084, 0.000000)" id="编组-9">
                        <g transform="translate(99.339624, 20.328537)" id="矩形_1_">
                            <g transform="translate(0.000000, 0.048822)" id="蒙版备份-2">
                                <g fill="url(#linearGradient-12)" id="蒙版">
                                    <path id="path-17" d="M48,0 L165.9,0 C192.3,0 213.9,21.6 213.9,48 L213.9,120 C213.9,146.4 192.3,168 165.9,168 L48,168 C21.6,168 0,146.7 0,120 L0,48 C0,21.6 21.6,0 48,0 Z"></path>
                                </g>
                                <g fill="url(#linearGradient-13)" transform="translate(0.000000, 8.100000)" id="path-20-link">
                                    <path id="path-20" d="M48,0 L165.9,0 C192.3,0 213.9,21.6 213.9,48 L213.9,120 C213.9,146.4 192.3,168 165.9,168 L48,168 C21.6,168 0,146.7 0,120 L0,48 C0,21.6 21.6,0 48,0 Z"></path>
                                </g>
                            </g>
                            <path opacity="0.3976" fill="#C3C4C8" id="路径_1_" d="M17.1,0 L106.2,0 C115.2,0 123.6,5.7 126.6,14.4 L151.8,86.1 L151.8,86.1 L48.6,113.7 L17.1,0 Z"></path>
                        </g>
                        <g id="矩形备份-12">
                            <g fill="url(#linearGradient-14)" id="蒙版_1_">
                                <path id="path-23" d="M43.2,0 L168,0 C177.6,0 186,6.3 188.7,15.3 L218.4,112.2 C225.3,135 212.7,159.3 189.6,166.2 C185.4,167.4 181.2,168 177,168 L43.2,168 C19.2,168 0,148.8 0,124.8 L0,43.2 C0,19.2 19.2,0 43.2,0 Z"></path>
                            </g>
                            <g fill="url(#linearGradient-15)" transform="translate(0.600000, 8.100000)" id="Clipped">
                                <path id="路径_2_" d="M43.2,0 L169.8,0 C179.4,0 187.5,6.3 190.5,15.3 L220.5,112.2 C227.4,135 214.8,159.3 192,166.2 C187.8,167.4 183.6,168 179.1,168 L43.2,168 C19.2,168 0,148.8 0,124.8 L0,43.2 C0,19.2 19.2,0 43.2,0 Z"></path>
                            </g>
                        </g>
                        <g transform="translate(0.000000, 50.943399)" id="矩形备份-11">
                            <g fill="url(#linearGradient-16)" id="蒙版_2_">
                                <path id="path-27" d="M48,0 L379.8,0 C406.2,0 427.8,21.6 427.8,48 L427.8,283.2 C427.8,309.6 406.2,331.2 379.8,331.2 L48,331.2 C21.6,331.2 0,309.6 0,283.2 L0,48 C0,21.6 21.6,0 48,0 Z"></path>
                            </g>
                            <g fill="url(#linearGradient-17)" transform="translate(0.000000, 8.100000)" id="Clipped_1_">
                                <path id="矩形_2_" d="M48,-7.99360578e-15 L379.8,-7.99360578e-15 C406.2,-7.99360578e-15 427.8,21.6 427.8,48 L427.8,265.2 C427.8,291.6 406.2,313.2 379.8,313.2 L48,313.2 C21.6,313.2 0,291.6 0,265.2 L0,48 C0,21.6 21.6,-7.99360578e-15 48,-7.99360578e-15 Z"></path>
                            </g>
                        </g>
                        <g transform="translate(254.716983, 149.824530)" id="蒙版备份-3">
                            <g fill="url(#linearGradient-18)" transform="translate(0.000000, 8.100000)" id="蒙版_3_">
                                <path id="path-31" d="M45.9,0 L173.4,0 L173.4,0 L173.4,91.8 L45.9,91.8 C20.4,91.8 0,71.1 0,45.9 C0,20.7 20.4,0 45.9,0 Z"></path>
                            </g>
                            <g fill="url(#linearGradient-19)" id="path-34-link">
                                <path id="path-34" d="M45.9,0 L173.4,0 L173.4,0 L173.4,91.8 L45.9,91.8 C20.4,91.8 0,71.1 0,45.9 C0,20.7 20.4,0 45.9,0 Z"></path>
                            </g>
                        </g>
                        <g transform="translate(283.795251, 171.373587)" id="椭圆形备份-5">
                            <g fill="url(#linearGradient-20)" id="蒙版_4_">
                                <circle r="24.3" cy="24.3" cx="24.3" id="path-37"></circle>
                            </g>
                            <g fill="url(#linearGradient-21)" transform="translate(0.000000, 5.400000)" id="Clipped_2_">
                                <circle r="24.3" cy="24.3" cx="24.3" id="椭圆形_10_"></circle>
                            </g>
                        </g>
                    </g>
                    <g transform="translate(148.559109, 268.404831) scale(-1, 1) translate(-148.559109, -268.404831) translate(0.000000, 119.754831)" id="编组-6">
                        <path fill="url(#linearGradient-22)" id="形状结合_1_" d="M30.7126029,30.825 C71.8126029,-10.275 138.112603,-10.275 179.212603,30.825 C220.312603,71.925 220.312603,138.225 179.212603,179.025 C138.112603,219.825 71.8126029,220.125 30.7126029,179.025 C-10.3873969,137.925 -10.0873969,71.925 30.7126029,30.825 Z M45.7126029,45.825 C13.0126031,78.525 13.0126031,131.625 45.7126029,164.325 C78.4126029,197.025 131.512603,197.025 164.512603,164.325 C197.512603,131.625 197.212603,78.525 164.512603,45.825 C131.812603,13.125 78.4126029,13.125 45.7126029,45.825 Z"></path>
                        <path fill="url(#linearGradient-23)" id="形状结合_2_" d="M182.812603,168.225 L201.412603,186.825 L203.212603,185.025 C206.512603,181.725 211.612603,181.725 214.612603,185.025 L294.712603,265.125 C297.712603,268.125 298.012603,272.925 295.012603,276.225 L294.712603,276.525 C294.712603,276.525 294.712603,276.525 294.712603,276.525 L276.412603,294.825 C273.112603,298.125 268.012603,298.125 265.012603,294.825 L184.912603,214.725 C181.912603,211.725 181.612603,206.925 184.612603,203.625 L184.912603,203.325 C184.912603,203.325 184.912603,203.325 184.912603,203.325 L186.712603,201.525 L168.112603,182.925 L182.812603,168.225 Z"></path>
                        <circle r="84" cy="105.225" cx="105.112603" fill="url(#linearGradient-24)" id="椭圆形_11_"></circle>
                    </g>
                </g>
            </g>
        </g>
    </g>
</svg>